<?xml version="1.0" encoding="utf-8"?>
<!-- Generator: Adobe Illustrator 22.0.1, SVG Export Plug-In . SVG Version: 6.00 Build 0)  -->
<svg version="1.1" xmlns="http://www.w3.org/2000/svg" xmlns:xlink="http://www.w3.org/1999/xlink" x="0px" y="0px"
	 viewBox="0 0 320 320" style="enable-background:new 0 0 320 320;" xml:space="preserve">
<style type="text/css">
	.st0{fill:#1556B0;}
	.st1{fill:url(#SVGID_1_);}
	.st2{fill:#FFFFFF;}
	.st3{fill:url(#SVGID_2_);}
	.st4{fill:url(#SVGID_3_);}
	.st5{fill-rule:evenodd;clip-rule:evenodd;fill:#FFFFFF;}
</style>
<g id="Layer_2">
	<rect y="0" class="st0" width="320" height="320"/>
</g>
<g id="Layer_1">
	<g>
		<path class="st2" d="M200.7,221.4c0,0-5.3-6.3-9.7-11.8c19.2-5.4,26.5-17.4,26.5-17.4c-6,3.9-11.7,6.7-16.8,8.6
			c-7.3,3.1-14.3,5.1-21.2,6.3c-14,2.6-26.9,1.9-37.9-0.1c-8.3-1.6-15.5-3.9-21.5-6.3c-3.4-1.3-7-2.9-10.7-5
			c-0.4-0.3-0.9-0.4-1.3-0.7c-0.3-0.1-0.4-0.3-0.6-0.4c-2.6-1.5-4.1-2.5-4.1-2.5s7,11.7,25.6,17.3c-4.4,5.6-9.8,12.1-9.8,12.1
			c-32.3-1-44.6-22.2-44.6-22.2c0-47.1,21.1-85.3,21.1-85.3c21.1-15.8,41.1-15.4,41.1-15.4l1.5,1.8c-26.3,7.6-38.5,19.2-38.5,19.2
			s3.2-1.8,8.6-4.2c15.7-6.9,28.1-8.8,33.2-9.2c0.9-0.1,1.6-0.3,2.5-0.3c8.9-1.2,19-1.5,29.5-0.3c13.9,1.6,28.8,5.7,44,14
			c0,0-11.6-11-36.4-18.6l2-2.3c0,0,20-0.4,41.1,15.4c0,0,21.1,38.2,21.1,85.3C245.4,199.2,233,220.4,200.7,221.4z M132.6,153.1
			c-8.3,0-14.9,7.3-14.9,16.2c0,8.9,6.7,16.2,14.9,16.2c8.3,0,14.9-7.3,14.9-16.2C147.7,160.4,141,153.1,132.6,153.1 M186,153.1
			c-8.3,0-14.9,7.3-14.9,16.2c0,8.9,6.7,16.2,14.9,16.2c8.3,0,14.9-7.3,14.9-16.2C201,160.4,194.4,153.1,186,153.1"/>
	</g>
</g>
</svg>
