<svg xmlns="http://www.w3.org/2000/svg" xmlns:xlink="http://www.w3.org/1999/xlink" x="0" y="0" version="1.1" viewBox="0 0 320 320" style="enable-background:new 0 0 320 320" xml:space="preserve"><style type="text/css">.st0{fill:#1556b0}.st5{fill-rule:evenodd;clip-rule:evenodd;fill:#fff}</style><g id="Layer_2"><rect width="320" height="320" y="0" class="st0"/></g><g id="Layer_1"><path d="M142.1,160.5v66.6c0,1,0.8,1.7,1.7,1.7h24.7c1,0,1.7-0.8,1.7-1.7v-67.7h17.9c0.9,0,1.7-0.7,1.7-1.6l1.7-20.4 c0.1-1-0.7-1.9-1.7-1.9h-19.7v-14.5c0-3.4,2.7-6.1,6.1-6.1h13.8c1,0,1.7-0.8,1.7-1.7V92.9c0-1-0.8-1.7-1.7-1.7h-23.4 c-13.7,0-24.8,11.1-24.8,24.8v19.7h-12.4c-1,0-1.7,0.8-1.7,1.7v20.4c0,1,0.8,1.7,1.7,1.7h12.4V160.5z" class="st5"/></g></svg>