<?xml version="1.0" encoding="utf-8"?>
<!-- Generator: Adobe Illustrator 22.0.1, SVG Export Plug-In . SVG Version: 6.00 Build 0)  -->
<svg version="1.1" xmlns="http://www.w3.org/2000/svg" xmlns:xlink="http://www.w3.org/1999/xlink" x="0px" y="0px"
	 viewBox="0 0 320 320" style="enable-background:new 0 0 320 320;" xml:space="preserve">
<style type="text/css">
	.st0{fill:#1556B0;}
	.st1{fill:#FFFFFF;}
	.st2{fill:url(#SVGID_1_);}
	.st3{fill:url(#SVGID_2_);}
	.st4{fill:url(#SVGID_3_);}
	.st5{fill-rule:evenodd;clip-rule:evenodd;fill:#FFFFFF;}
</style>
<g id="Layer_2">
	<rect y="0" class="st0" width="320" height="320"/>
</g>
<g id="Layer_1">
	<path class="st5" d="M142.1,160.5v66.6c0,1,0.8,1.7,1.7,1.7h24.7c1,0,1.7-0.8,1.7-1.7v-67.7h17.9c0.9,0,1.7-0.7,1.7-1.6l1.7-20.4
		c0.1-1-0.7-1.9-1.7-1.9h-19.7v-14.5c0-3.4,2.7-6.1,6.1-6.1h13.8c1,0,1.7-0.8,1.7-1.7V92.9c0-1-0.8-1.7-1.7-1.7h-23.4
		c-13.7,0-24.8,11.1-24.8,24.8v19.7h-12.4c-1,0-1.7,0.8-1.7,1.7v20.4c0,1,0.8,1.7,1.7,1.7h12.4V160.5z"/>
</g>
</svg>
