<?xml version="1.0" encoding="utf-8"?>
<!-- Generator: Adobe Illustrator 22.0.1, SVG Export Plug-In . SVG Version: 6.00 Build 0)  -->
<svg version="1.1" xmlns="http://www.w3.org/2000/svg" xmlns:xlink="http://www.w3.org/1999/xlink" x="0px" y="0px"
	 viewBox="0 0 320 320" style="enable-background:new 0 0 320 320;" xml:space="preserve">
<style type="text/css">
	.st0{fill:#1556B0;}
	.st1{fill:#FFFFFF;}
	.st2{fill:url(#SVGID_1_);}
	.st3{fill:url(#SVGID_2_);}
	.st4{fill-rule:evenodd;clip-rule:evenodd;fill:#FFFFFF;}
</style>
<g id="Layer_2">
	<rect y="0" class="st0" width="320" height="320"/>
</g>
<g id="Layer_1">
	<g>
		
			<ellipse transform="matrix(0.9239 -0.3827 0.3827 0.9239 -32.1476 84.7916)" class="st1" cx="197.1" cy="123.2" rx="8.2" ry="8.2"/>
		<path class="st1" d="M160.6,125.5c-19,0-34.5,15.5-34.5,34.5s15.5,34.5,34.5,34.5s34.5-15.5,34.5-34.5S179.6,125.5,160.6,125.5z
			 M160.6,182.1c-12.2,0-22.1-9.9-22.1-22.1c0-12.2,9.9-22.1,22.1-22.1s22.1,9.9,22.1,22.1C182.7,172.2,172.8,182.1,160.6,182.1z"/>
		<path class="st1" d="M187.9,230h-55.9c-23.2,0-42.1-18.9-42.1-42.1v-55.9c0-23.2,18.9-42.1,42.1-42.1h55.9
			c23.2,0,42.1,18.9,42.1,42.1v55.9C230,211.1,211.1,230,187.9,230z M132.1,103.2c-15.9,0-28.9,13-28.9,28.9v55.9
			c0,15.9,13,28.9,28.9,28.9h55.9c15.9,0,28.9-13,28.9-28.9v-55.9c0-15.9-13-28.9-28.9-28.9H132.1z"/>
	</g>
</g>
</svg>
